<svg width="99" height="85" viewBox="0 0 99 85" fill="none" xmlns="http://www.w3.org/2000/svg">
<path d="M27.5426 0.0357524C33.1713 0.251596 39.0326 2.36166 43.8407 5.20857C45.6884 6.30267 47.3575 7.71682 49.2015 8.76441C54.8785 4.69501 61.3874 1.14661 68.4395 0.221825C68.6777 0.190193 68.9419 0.247875 69.1838 0.221825C69.6192 0.175307 70.3728 0.0506382 70.6705 0.0357524C71.5358 -0.00518353 72.6001 -0.0182086 73.4597 0.0357524C75.6796 0.177168 77.7896 0.884243 79.9667 1.3364C80.0802 1.36059 80.2253 1.31221 80.3388 1.3364C82.9066 2.39515 85.1004 3.58788 87.3408 5.21601C87.551 5.36859 87.8617 5.35929 87.9604 5.42441C88.0069 5.45604 88.0702 5.54908 88.1464 5.61048C88.193 5.6477 88.7344 6.16498 88.9354 6.34919C89.2164 6.60411 89.4062 7.1828 89.8192 7.28328C89.8695 7.2963 89.942 7.28328 90.0053 7.28328L93.8012 12.3165C97.2454 17.9564 98.4251 23.5535 98.1832 30.1479C98.1739 30.3953 98.1962 30.6447 98.1832 30.8922C98.0157 34.0517 97.1319 37.6205 96.0918 40.6033C95.7996 41.4406 94.7595 43.305 94.6516 43.9042C94.6367 43.9842 94.6311 44.2317 94.6516 44.2763C94.2031 44.6597 94.1194 45.2737 93.9073 45.7631C88.1576 59.1212 71.5581 73.3167 59.709 81.3699C58.5888 82.1309 57.2417 83.2362 55.9261 83.9023C54.7967 84.4736 54.8413 84.2168 54.2403 83.1059C51.278 77.6429 48.7326 70.7005 47.5268 64.7257C46.6002 60.1334 46.2411 54.6034 47.1156 49.9962C48.5242 42.5868 56.1773 36.0445 63.4211 34.2377C64.4985 33.9698 65.3656 33.7335 66.4802 33.6721C68.3669 33.5679 70.2835 33.7074 72.1554 33.8637C72.0698 33.5493 71.4055 33.4079 71.1227 33.3185C69.8965 32.9315 68.2274 32.5538 66.9509 32.5631C66.7667 32.5631 66.5769 32.5501 66.3927 32.5631C66.2364 32.2654 65.7619 32.3845 65.4623 32.377C65.1628 32.3696 64.8409 32.3658 64.532 32.377C64.3292 32.3845 64.0631 32.3212 63.9738 32.5631C63.851 32.5538 63.7244 32.5649 63.6016 32.5631C58.4586 32.4663 52.0242 36.9544 48.6972 40.6144C48.5335 40.7949 48.5335 41.0145 48.1744 40.927C47.9529 40.6721 49.2015 36.4334 49.421 35.7635C51.9554 28.049 57.2212 20.3995 65.2409 18.1239C65.4754 18.0569 65.7843 17.975 65.8308 17.694C60.2467 17.7629 55.3214 21.0899 51.7134 25.0904C51.3767 25.4626 49.9085 27.4666 49.7485 27.5447C49.4564 27.688 49.4899 27.4033 49.4229 27.3121C47.8078 25.0644 46.6541 23.4548 44.5459 21.5904C44.3859 21.449 44.131 21.4564 44.0808 21.4136C44.0156 21.3578 43.9635 21.2834 43.8947 21.2275C40.3947 18.3285 36.7346 16.2334 31.9972 16.0231C31.6269 16.0064 31.2529 16.0361 30.8826 16.0231C30.8064 15.7328 30.1998 15.7459 30.1384 16.0231C29.7662 16.0268 29.3941 16.0194 29.0238 16.0231C27.9166 16.0324 27.8738 16.3971 27.8031 16.399C27.5482 16.4064 27.2747 16.185 26.7556 16.2464C25.9331 16.3413 24.3943 16.8679 23.5886 17.1879C23.3914 17.2661 23.0341 17.2419 23.0788 17.5098C29.2992 16.2073 34.0087 17.7499 39.2503 20.8573C39.3824 20.9354 39.5238 20.9838 39.6225 21.0433C40.19 21.3894 40.7873 21.9197 41.4813 22.344C41.459 22.8427 41.8051 22.7496 42.1382 23.0771C42.7243 23.6577 43.6137 24.4987 44.0845 25.1313C47.3891 29.5729 46.0494 33.4748 44.2706 38.1434C43.1709 41.0257 42.6145 42.6631 42.0395 45.7649C41.9819 46.0775 41.9056 46.3659 41.8535 46.6953C41.5781 48.4444 41.2599 50.2642 41.2041 52.0858C38.6121 49.4436 35.4693 47.5549 32.0009 46.325C31.8074 46.2562 31.6381 46.2022 31.4427 46.1389C30.9347 45.9752 30.6631 45.9008 30.1421 45.7668C29.889 45.7017 29.6601 45.6384 29.3978 45.5807C25.2242 44.6615 21.6032 44.7955 17.6213 46.5371L15.6433 47.6238C18.8549 46.7567 22.0554 46.1315 25.3991 46.5129C36.9356 47.8322 42.2889 57 44.0826 67.5149C44.1124 67.688 44.0547 67.8982 44.0826 68.0732C44.8418 72.8999 45.0521 78.2402 44.8269 83.1301C44.8158 83.3758 44.853 83.6325 44.8269 83.8744C44.8009 84.1163 44.7078 85.1248 44.3655 84.9871C41.8293 83.2362 39.1926 81.623 36.6639 79.8608C35.4824 79.0384 33.2067 76.9023 32.0009 76.625C31.5209 75.6482 27.5799 72.885 26.4206 71.8876C20.6635 66.9307 15.2637 61.5271 10.7068 55.437C10.597 55.2788 10.4407 55.2174 10.2509 55.2472C9.33545 53.3623 7.93246 51.5853 6.84022 49.745C1.95395 41.5243 -1.23347 32.6896 0.457932 22.8687C2.5773 10.5972 12.7089 0.657234 25.3135 0.0357524C26.0243 0.000398647 26.83 0.00784155 27.5445 0.0357524H27.5426ZM65.4623 16.7655C66.5583 13.2302 62.8741 11.3862 60.0755 10.6326C60.3454 13.6916 61.2739 16.6185 64.7199 17.1358L62.3959 13.6079C63.6612 14.4564 64.4631 15.6603 65.4623 16.7637V16.7655ZM43.53 17.3237C43.6342 17.0149 43.8631 15.8612 43.8631 15.5579C43.8668 14.6499 42.8136 12.0411 42.2424 11.3043C42.1158 11.1406 41.9316 11.1331 41.7697 11.1815C41.2543 11.3397 40.149 14.4601 40.1677 15.1858C40.1825 15.7403 40.9306 17.7554 41.3008 18.0662C41.6023 18.3192 41.8553 17.5712 41.8553 17.4168V14.5364C42.1344 14.6183 42.2052 15.4965 42.2256 15.7477C42.2889 16.5757 42.1847 17.4261 42.2293 18.2541C42.2759 18.3062 43.0834 17.9396 43.1578 17.8838C43.0853 18.0308 42.7392 19.1361 42.7876 19.1845L45.0167 18.0699C44.892 17.3591 45.6661 17.7368 45.387 18.0699C45.3479 18.1164 45.0539 18.0308 45.0167 18.0699C44.9981 18.0904 45.0502 18.3099 44.8846 18.4439L42.9718 19.7408C44.6874 20.4702 46.2057 19.1882 47.097 17.828C47.3073 17.5061 48.0999 16.2055 47.5008 16.038C47.3352 15.9915 45.5321 16.2576 45.2344 16.3357C44.8232 16.4455 43.8184 17.0316 43.5281 17.3256L43.53 17.3237ZM66.9528 17.508C69.9337 16.7116 69.515 13.5558 68.994 11.1889C66.9863 12.4859 65.9182 13.7381 66.229 16.2799C66.2494 16.4418 66.4002 17.5135 66.763 17.1377L67.8776 13.9782C68.0581 15.2974 67.4887 16.3673 66.9509 17.508H66.9528ZM23.637 16.0231C24.1747 14.3838 23.5105 13.1483 22.2396 12.123C20.6524 10.8428 20.4607 11.4439 20.6635 13.3288C20.8161 14.7466 21.5772 15.7068 22.8927 16.2092C23.0136 16.0622 22.2321 14.4508 22.113 14.1084C22.0535 13.9409 21.7707 13.5781 22.1484 13.6079C22.5894 14.2331 22.8778 14.9253 23.2183 15.6137C23.3411 15.8631 23.0992 16.1254 23.637 16.0231ZM22.1521 16.7637C20.8496 14.0656 17.5115 14.7299 15.461 16.1161C15.327 16.6539 18.399 18.2392 19.0912 18.2597C19.4913 18.2727 21.3874 17.7238 21.4004 17.4168C21.4302 16.7227 19.4522 16.8009 18.9442 16.7171C18.7768 16.6892 18.386 16.639 18.4344 16.3934C19.696 16.3078 20.9296 16.4715 22.1503 16.7618L22.1521 16.7637ZM81.2655 15.8352C79.1275 15.664 76.6416 16.1757 76.2471 18.6225C76.4202 18.8105 77.6854 17.9117 77.9199 17.7871C78.2009 17.6363 78.4223 17.655 78.2902 17.9713C78.0725 18.4886 76.7253 18.8235 76.4332 19.365C78.6195 19.9232 81.779 18.5239 81.2673 15.8352H81.2655ZM50.9654 22.156C53.3732 21.9514 55.8908 18.7733 54.0208 16.5832C51.7972 17.5749 49.862 19.0765 50.5952 21.7876L51.1515 21.6016L50.9673 22.156H50.9654ZM22.7103 18.4402C22.2042 18.0811 19.7909 18.9184 19.3108 19.3575C19.0856 19.5622 18.2651 21.6127 18.4344 21.7839C20.5389 21.7244 22.781 21.475 23.2444 19.0635C23.3821 18.349 22.5205 19.3668 22.3382 19.1808L22.7085 18.4402H22.7103ZM32.5629 20.6693C32.5982 20.6228 33.1918 20.1055 33.389 19.9157C33.6886 19.6255 34.5948 19.2943 34.3268 18.8067C32.4363 19.0431 30.0937 20.0702 29.9523 22.2547C29.8555 23.7563 30.276 23.4623 31.2622 23.2706C31.3236 23.2595 31.3906 23.2855 31.4483 23.2706C33.376 22.7738 35.0376 21.6053 34.7027 19.3687C33.8189 19.8785 33.3481 21.0266 32.3787 21.2275C32.4326 21.0378 32.4419 20.8349 32.5647 20.6693H32.5629ZM90.7459 21.97C88.2339 21.769 86.0029 22.8762 85.5414 25.5016L88.139 23.92L87.5008 24.7685L85.9117 26.0598C88.34 26.3092 91.1608 24.722 90.744 21.97H90.7459ZM97.4352 26.2459C97.0779 24.4894 95.5279 23.2836 93.7193 23.4604L94.0896 24.201L93.1648 24.1079C93.7212 26.1399 95.5838 26.378 97.4352 26.2478V26.2459ZM43.3421 25.1332C41.3027 23.8661 39.6876 24.9118 38.3274 26.525C40.0039 27.6005 42.2535 27.4963 43.3421 25.6896C42.7299 25.7305 42.1289 25.9389 41.5223 26.0059C41.3176 26.0282 40.8878 26.2217 40.9268 25.8756L43.3402 25.1313L43.3421 25.1332ZM42.5996 29.2194C42.4526 29.0575 43.5467 27.0777 43.4388 26.6236C40.6068 27.5428 41.005 30.3042 41.299 32.7529C43.022 32.297 44.4901 30.3879 44.4715 28.5662C44.4678 28.1178 44.3729 26.432 43.8556 27.2302C43.5635 27.6787 43.3514 28.3616 43.0611 28.8547C42.996 28.9682 42.9011 29.5524 42.5996 29.2194ZM61.0041 32.1947C61.713 31.8393 61.9977 31.0261 61.9233 30.2651C61.8842 29.8706 60.9464 27.3865 60.4477 27.7345C60.3751 27.7847 59.7853 29.13 59.7462 29.3571C59.5601 30.4139 59.7034 31.5248 60.6282 32.1947C60.6468 31.6699 60.6096 31.1378 60.6301 30.613C60.6394 30.3879 60.4905 29.9209 60.8143 29.9655L61.0041 32.1947ZM56.9142 30.8959C57.7515 30.6186 59.3499 32.7008 59.348 31.1731C59.3461 29.8055 55.9299 29.2938 54.8692 29.4092C55.2153 31.6067 57.0277 33.0971 59.3313 32.7529L56.9142 30.8977V30.8959ZM82.0061 31.268C81.8702 31.0726 78.6195 30.3563 78.1674 30.3488C76.2787 30.3172 74.7064 31.4839 73.6421 32.9352L78.2883 32.2858C76.8984 33.2422 75.1828 33.2571 73.6421 33.7726C75.7261 35.5886 78.1171 34.8518 80.1323 33.3855C80.5119 33.1083 82.2907 31.6755 82.0042 31.2662L82.0061 31.268ZM97.2491 31.2662C95.0293 30.8252 92.5861 31.4243 91.9498 33.8637L94.8302 32.4719C94.1678 33.486 92.9285 33.9121 91.8605 34.3326C93.9891 35.2649 97.5245 33.9772 97.2491 31.268V31.2662ZM77.5459 39.8143C77.2314 37.0977 75.6498 34.7252 72.7155 34.6117L74.9446 37.1219C74.7213 37.3991 74.2394 36.9321 74.0124 36.7516L72.1591 34.7978C71.4055 38.0783 74.805 39.591 77.5478 39.8143H77.5459ZM42.2256 40.9308C43.0741 38.4206 41.2748 36.6418 39.2559 35.5402C38.8149 37.8587 38.9303 40.8489 41.6693 41.489C41.3939 40.5475 40.8096 39.725 40.5993 38.75C40.5584 38.5621 40.4114 38.0987 40.7408 38.1453L41.3846 39.8236L42.2275 40.9308H42.2256ZM58.4028 37.587C57.9357 39.6822 59.4745 42.9869 61.8395 43.1655C62.4517 43.212 63.0769 43.2995 63.0378 42.5403C62.8983 39.939 62.0479 37.5312 59.1433 37.2168C59.428 37.6987 59.6867 38.2178 59.9974 38.6849C60.0811 38.8095 61.5697 40.5456 60.7268 40.1883C60.3491 40.0283 59.2103 38.3834 58.881 37.9387C58.7265 37.7303 58.881 37.4773 58.4046 37.587H58.4028ZM31.7535 44.027C33.2476 42.6947 32.7955 39.3733 31.9079 37.7731C29.902 39.1054 28.233 42.0379 29.8667 44.2745L30.1998 43.6809L31.0724 40.7465C31.2939 42.17 30.7524 43.3088 30.5179 44.6485C30.9292 44.4568 31.4055 44.334 31.7535 44.0251V44.027ZM27.7324 44.2782C27.9836 44.2447 28.0543 44.027 28.0934 43.8074C28.6981 40.2832 24.4371 38.3313 21.5958 37.961C22.1112 41.1243 23.2723 44.2856 26.9863 44.4643C27.3956 44.0847 24.5152 41.5113 24.3869 41.2099C24.292 40.9903 24.4427 40.8396 24.6622 40.9345C25.5684 41.3308 27.2431 43.3534 27.7343 44.2782H27.7324ZM90.5505 41.2936C90.9934 40.6517 88.0906 38.7351 87.4989 38.5081C87.164 38.3797 86.5053 38.1843 86.1648 38.1583C85.1228 38.0764 83.6156 38.4244 82.9383 39.2561C84.1477 39.6431 85.4298 39.7846 86.6523 40.099C86.8644 40.153 87.2552 40.0879 87.2105 40.3725C85.6084 40.5363 84.1087 40.1437 82.5661 39.8181C83.0797 42.023 85.4279 42.4417 87.471 42.2147C87.8655 42.17 90.437 41.4555 90.5486 41.2955L90.5505 41.2936ZM41.4832 42.4175C41.3827 40.8619 36.8742 40.821 36.6509 41.7699C37.1756 42.531 38.4595 43.4111 39.3638 43.519C40.0262 43.599 41.6339 43.519 41.2022 42.6036C40.7184 42.5552 39.7583 42.7208 39.4401 42.2351L41.4832 42.4175ZM57.2845 46.8814C54.3948 45.9398 50.664 45.6403 49.2927 48.9226C49.6443 49.2445 52.5024 48.0722 53.1127 47.9997C53.4793 47.9569 53.3937 48.0499 53.3807 48.3625L49.2927 49.7562C51.933 51.8644 55.2991 49.6427 57.0072 47.4359C57.1505 47.2498 57.3663 47.1995 57.2845 46.8795V46.8814ZM67.6952 48.9263C67.3435 49.2315 68.7986 49.8734 69.0014 49.9422C70.5756 50.4707 72.5424 50.4391 73.5379 48.9133C74.0087 48.1913 73.7816 48.0946 73.0932 47.7075C71.465 46.792 68.4116 46.5985 67.8813 48.7384L68.8098 48.9226L67.6971 48.9263H67.6952ZM34.0477 51.7118C34.3938 51.4178 33.0857 50.6996 32.7973 50.64C30.5552 50.1767 28.3502 51.6876 27.1705 53.4758C29.4108 54.8397 32.8811 54.6536 34.0477 52.0858C33.9138 51.963 31.3255 52.6254 30.8938 52.7408C30.7598 52.7761 30.1625 52.9976 30.4212 52.6403C31.5116 52.0188 32.788 51.6578 34.0477 51.7118ZM53.1946 55.2435C52.9825 52.6477 51.2855 50.5563 48.5484 50.5991C49.047 51.2262 49.6369 51.8216 50.2174 52.3742C50.4128 52.5603 50.757 52.6217 50.7775 52.644C50.8761 52.7557 50.8501 53.1018 50.5114 53.0031C49.6201 52.7426 48.7642 51.4718 47.992 50.9675C47.6459 53.9968 50.811 54.8695 53.1927 55.2416L53.1946 55.2435ZM36.0945 52.8282C35.7187 52.7371 35.4433 53.3269 35.2758 53.5893C34.3213 55.0834 33.7333 57.32 34.7139 58.9482C34.8385 59.1547 36.0759 60.2246 36.2006 60.2544C36.5374 60.3325 37.5943 58.3025 37.7413 57.9155C38.279 56.4994 38.2883 55.7235 37.652 54.3354C37.4491 53.8944 37.01 52.9994 36.4648 53.0124V56.172C36.3215 56.278 36.0927 55.7961 36.0927 55.7068V52.8264L36.0945 52.8282Z" fill="#FBFBFB"/>
</svg>
