<svg width="87" height="85" viewBox="0 0 87 85" fill="none" xmlns="http://www.w3.org/2000/svg">
<path d="M46.5389 7.93392C46.9432 4.68575 50.0092 1.41956 53.0933 0.492939C59.7097 -1.49639 65.1494 2.75044 65.9159 9.36487C65.9719 9.84119 65.5376 10.5737 66.128 10.9399C66.5623 11.2101 67.9152 10.5096 68.6317 10.4336C74.6577 9.80717 80.1614 14.5423 79.7211 20.7245C79.6651 21.519 78.9086 23.1281 79.2208 23.6304C86.3216 26.1461 88.7792 34.0674 83.7298 39.9254C83.4156 40.2896 82.503 40.856 82.505 41.1181C82.509 41.6965 84.1221 42.8013 84.6264 43.4177C88.6831 48.355 87.1281 56.0141 81.2281 58.6179C80.6978 58.852 78.8125 59.3163 78.7385 59.5365C78.9186 60.7073 79.7051 61.7139 79.8752 62.9648C80.8359 70.0155 74.8499 75.6613 67.8792 74.1623C67.2808 74.0342 66.7164 73.3577 65.9559 73.6319C65.7097 74.4785 65.9939 75.325 65.9079 76.2857C65.1234 84.9695 53.9339 88.1176 48.5442 81.3031C46.1727 78.3031 46.0486 73.5999 46.5649 69.9374C48.0539 59.3844 58.7151 58.6879 65.6377 65.0061C66.4582 65.7546 67.2087 67.0515 67.9292 67.714C68.2014 67.9641 68.3215 68.0822 68.7318 68.0101C69.2161 67.5098 66.3442 63.7913 65.8358 63.2109C64.9192 62.1602 63.8105 61.1996 62.7218 60.327L62.5356 59.6145C68.0473 59.0341 72.8345 56.8947 76.535 52.7199C77.0253 52.1675 79.581 48.9314 79.1287 48.417C78.7325 48.449 78.2902 48.9994 78.008 49.2916C77.1494 50.1762 76.3969 51.2289 75.4263 52.0114C72.8665 54.0768 69.2121 55.5538 65.9359 55.814C66.4162 53.9687 66.8425 52.4617 66.7424 50.5084C66.7304 50.2523 66.3962 47.0141 65.7358 47.6185C65.5436 50.2663 65.4156 52.814 63.4422 54.8233C61.1627 57.1429 59.2954 56.2403 56.4295 56.4064C54.5403 56.5165 52.3228 56.7646 50.5056 57.279C50.2034 57.365 48.8645 58.3157 48.7424 57.7113C48.6743 57.375 49.2567 56.5705 49.4589 56.2323C55.1547 46.7239 67.615 42.463 78.1301 41.4183C78.5564 41.0021 77.2075 40.84 77.0293 40.8219C73.6851 40.4957 69.6204 40.88 66.2901 41.4744C65.6437 41.5905 62.1554 42.6211 61.9392 42.419C63.6504 37.2776 66.3682 31.3076 70.9493 28.1394C71.8799 27.497 73.1347 26.9246 74.1374 26.3222C74.3916 26.1701 74.6437 26.3623 74.5317 25.8259C74.1174 25.8299 73.6891 25.7739 73.2768 25.8699C71.2014 26.3503 67.7871 28.5257 66.16 29.9567C65.0613 30.9233 64.2648 32.1842 63.2361 33.2208L62.1514 28.91C61.9732 28.7459 61.0927 26.8166 60.7364 27.2268L61.3148 31.3456C61.1607 34.7179 60.6744 37.7959 58.9692 40.7559C56.7097 44.6765 53.4175 45.8253 50.2434 48.6252C49.1066 49.6278 48.17 50.9747 47.1453 51.9254C46.9492 52.1075 46.8611 52.2916 46.5409 52.2176C46.6049 45.8193 47.4956 39.2349 49.9052 33.2929C52.9032 25.8999 58.2047 20.4343 65.9639 18.1628C66.9746 17.8666 68.1254 18.0487 68.9299 17.1281C69.16 16.6638 67.8352 16.8099 67.623 16.8219C63.8465 17.036 59.9619 18.2228 56.7337 20.1401L56.3695 19.5677C57.6924 16.2235 57.2221 10.9219 55.1006 7.96994C54.9025 7.69376 53.4976 6.07067 53.7758 7.29349C53.9699 8.15006 54.5122 8.84052 54.7284 9.54299C57.13 17.3722 52.0126 22.3416 48.134 28.3236C47.7457 28.922 47.4635 29.7325 47.0853 30.2749C46.9232 30.509 46.9292 30.7112 46.5389 30.6291V7.93592V7.93392Z" fill="#FBFBFB"/>
<path d="M40.3508 7.93392C39.9465 4.68575 36.8804 1.41956 33.7964 0.492939C27.1799 -1.49639 21.7403 2.75044 20.9738 9.36487C20.9177 9.84119 21.352 10.5737 20.7616 10.9399C20.3274 11.2101 18.9744 10.5096 18.258 10.4336C12.2319 9.80717 6.72824 14.5423 7.16853 20.7245C7.22457 21.519 7.98108 23.1281 7.66887 23.6304C0.568112 26.1461 -1.88952 34.0674 3.15987 39.9254C3.47408 40.2896 4.38669 40.856 4.38469 41.1181C4.38068 41.6965 2.76758 42.8013 2.26324 43.4177C-1.79347 48.355 -0.23841 56.0141 5.66154 58.6179C6.1919 58.852 8.07715 59.3163 8.1512 59.5365C7.97108 60.7073 7.18454 61.7139 7.01442 62.9648C6.05378 70.0155 12.0398 75.6613 19.0105 74.1623C19.6089 74.0342 20.1732 73.3577 20.9338 73.6319C21.1799 74.4785 20.8957 75.325 20.9818 76.2857C21.7663 84.9695 32.9558 88.1176 38.3454 81.3031C40.717 78.3031 40.8411 73.5999 40.3247 69.9374C38.8357 59.3844 28.1746 58.6879 21.252 65.0061C20.4314 65.7546 19.6809 67.0515 18.9604 67.714C18.6883 67.9641 18.5682 68.0822 18.1579 68.0101C17.6736 67.5098 20.5455 63.7913 21.0538 63.2109C21.9704 62.1602 23.0792 61.1996 24.1679 60.327L24.354 59.6145C18.8423 59.0341 14.0552 56.8947 10.3547 52.7199C9.86435 52.1675 7.30864 48.9314 7.76095 48.417C8.15721 48.449 8.5995 48.9994 8.88169 49.2916C9.74027 50.1762 10.4928 51.2289 11.4634 52.0114C14.0231 54.0768 17.6776 55.5538 20.9538 55.814C20.4734 53.9687 20.0472 52.4617 20.1472 50.5084C20.1592 50.2523 20.4935 47.0141 21.1539 47.6185C21.346 50.2663 21.4741 52.814 23.4475 54.8233C25.727 57.1429 27.5942 56.2403 30.4601 56.4064C32.3494 56.5165 34.5669 56.7646 36.3841 57.279C36.6863 57.365 38.0252 58.3157 38.1473 57.7113C38.2153 57.375 37.6329 56.5705 37.4308 56.2323C31.735 46.7239 19.2747 42.463 8.75961 41.4183C8.33333 41.0021 9.68223 40.84 9.86035 40.8219C13.2046 40.4957 17.2693 40.88 20.5995 41.4744C21.246 41.5905 24.7343 42.6211 24.9504 42.419C23.2393 37.2776 20.5215 31.3076 15.9404 28.1394C15.0098 27.497 13.7549 26.9246 12.7523 26.3222C12.4981 26.1701 12.2459 26.3623 12.358 25.8259C12.7723 25.8299 13.2006 25.7739 13.6129 25.8699C15.6883 26.3503 19.1025 28.5257 20.7296 29.9567C21.8284 30.9233 22.6249 32.1842 23.6536 33.2208L24.7383 28.91C24.9164 28.7459 25.797 26.8166 26.1532 27.2268L25.5749 31.3456C25.729 34.7179 26.2153 37.7959 27.9204 40.7559C30.18 44.6765 33.4722 45.8253 36.6463 48.6252C37.783 49.6278 38.7197 50.9747 39.7444 51.9254C39.9405 52.1075 40.0285 52.2916 40.3488 52.2176C40.2847 45.8193 39.3941 39.2349 36.9845 33.2929C33.9865 25.8999 28.6849 20.4343 20.9257 18.1628C19.9151 17.8666 18.7643 18.0487 17.9598 17.1281C17.7296 16.6638 19.0545 16.8099 19.2666 16.8219C23.0432 17.036 26.9278 18.2228 30.1559 20.1401L30.5202 19.5677C29.1973 16.2235 29.6676 10.9219 31.789 7.96994C31.9872 7.69376 33.3921 6.07067 33.1139 7.29349C32.9198 8.15006 32.3774 8.84052 32.1613 9.54299C29.7597 17.3722 34.8771 22.3416 38.7557 28.3236C39.144 28.922 39.4261 29.7325 39.8044 30.2749C39.9665 30.509 39.9605 30.7112 40.3508 30.6291V7.93592V7.93392Z" fill="#FBFBFB"/>
</svg>
