<svg width="62" height="85" viewBox="0 0 62 85" fill="none" xmlns="http://www.w3.org/2000/svg">
<path d="M44.4297 11.6832C46.1044 11.6351 47.583 12.4993 48.9894 13.2951C50.3015 14.039 51.8781 14.9217 52.5814 16.3096C53.1254 17.3866 53.3734 18.5876 53.2753 19.7923C53.614 19.8071 53.9415 19.8793 54.2617 19.9903C55.4497 20.403 59.3969 22.8605 60.1778 23.7969C62.0784 26.0749 61.6879 29.4947 59.8725 31.6987C59.5505 32.0892 58.1145 33.3957 58.0238 33.7251C57.9331 34.0545 58.5179 35.0112 58.2255 35.5386C56.1529 43.5293 55.8661 51.8586 50.6309 58.6075C49.8499 59.6142 48.723 60.273 47.9346 61.2723L48.2881 73.0843C48.166 75.2865 48.3769 77.5108 48.4121 79.6908C48.4472 81.9188 48.8766 84.4097 46.1044 84.9963L16.925 85C13.298 84.4541 14.5841 80.8603 14.7488 78.3232C15.1781 71.7353 15.3521 65.1362 15.9442 58.5613C12.3931 53.4612 8.85851 48.3462 5.37208 43.1999C4.80211 42.3579 4.36539 41.4011 3.75656 40.5777C1.90416 38.0702 -1.09928 35.8477 0.410769 32.2002C4.64852 25.9121 8.06277 18.7412 12.2024 12.4549C13.174 10.98 14.4046 10.3638 16.1682 10.4674C16.5068 10.4878 17.0453 10.7876 17.31 10.5896C18.4813 8.64833 19.7249 6.75153 20.8797 4.80105C22.0344 2.85057 22.7654 0.346788 25.5634 0.0136893C27.4917 -0.215778 32.9471 2.49527 34.2591 3.9683C34.4793 4.21628 34.9216 5.06383 35.0678 5.15265C35.2417 5.25813 36.65 5.25443 37.183 5.40618C38.4006 5.75038 42.581 8.0284 43.3453 8.96663C43.9763 9.73831 44.3113 10.7117 44.4278 11.6851L44.4297 11.6832ZM32.2846 5.75593C31.5499 4.90468 29.2904 3.87023 28.2115 3.40944C27.3714 3.04859 26.2962 2.44345 25.3783 2.81541C24.4605 3.18737 23.389 5.80589 22.8283 6.74782C21.7031 8.64093 20.4485 10.4619 19.3622 12.379C22.1824 13.4024 24.4808 15.5638 27.4546 16.1745C28.106 14.8791 28.8296 13.6115 29.5643 12.3605C30.3637 10.9985 31.8552 8.94997 32.4197 7.61203C32.7379 6.85516 32.8638 6.42583 32.2864 5.75593H32.2846ZM35.1955 23.2898L41.404 12.9842C41.85 12.218 41.9407 11.4427 41.3596 10.7043C40.9636 10.2009 37.1108 8.15609 36.3854 7.95068C35.66 7.74527 35.0585 7.74897 34.5163 8.33929C33.5466 9.39225 31.7368 12.7103 30.9355 14.1074C30.3711 15.0901 29.8585 16.1116 29.3329 17.1146C30.867 18.3378 33.5522 18.2527 34.5404 20.0199C35.0881 21.0007 35.2787 22.1795 35.1973 23.2898H35.1955ZM16.9954 82.2501H33.0747L31.9589 58.1504C31.9237 57.9931 29.5217 57.0068 29.1775 56.7921C29.0221 56.6941 28.9147 56.6756 28.961 56.4479L33.5078 54.5752L34.2721 47.2211L25.3524 35.1889C22.1621 33.4956 18.6016 32.2095 15.4298 30.5273C15.2873 30.4515 15.093 30.4311 15.1226 30.2109L19.3622 28.6509L17.1193 21.5466C18.5202 22.9401 19.6823 24.5982 20.9851 26.0934C22.658 28.0124 24.0237 29.9574 26.905 29.9074C31.1816 29.8315 32.6195 25.7659 33.1691 22.2017C33.2505 21.6762 33.2542 21.3283 32.8934 20.9175C32.2994 20.242 29.6586 19.4463 28.6853 19.0169C24.9694 17.3755 21.3386 15.5398 17.6616 13.8354C16.5919 13.3395 15.3336 12.5086 14.5212 13.7762C12.6614 17.0147 10.7905 20.255 8.86591 23.4527C7.08754 26.408 4.46902 29.9481 3.03299 32.9515C2.5426 33.9768 2.57591 34.1692 3.01079 35.2185C3.66588 36.7951 4.90389 37.6482 5.87728 38.9584C7.24483 40.7979 8.4958 43.0611 9.80969 44.9968C12.6799 49.2253 15.6426 53.3908 18.4832 57.6397C18.8478 58.7389 18.3204 61.3426 18.2408 62.6214C17.8744 68.5579 17.6449 74.513 17.2415 80.444C17.2026 81.0102 17.0823 81.6838 16.9935 82.2519L16.9954 82.2501ZM44.2613 14.3425C43.8005 14.4202 43.2805 14.8366 42.9937 15.1956C39.8959 20.1698 36.8906 25.2052 33.802 30.185C33.4152 30.8068 32.8527 31.4378 32.477 32.1003C32.316 32.3853 31.7442 33.3642 31.722 33.5955C31.7053 33.7713 31.7942 33.7843 31.9089 33.8676L38.1341 36.8692C38.8762 37.0561 39.1686 36.4213 39.5368 35.9161C43.3545 30.6828 46.865 25.1774 50.4976 19.8275C50.803 19.0225 50.568 18.0047 50.0868 17.3126C49.5724 16.5742 45.738 14.398 44.8424 14.324C44.6314 14.3073 44.476 14.3055 44.265 14.3406L44.2613 14.3425ZM58.0867 25.4513C57.7555 25.0756 53.9526 22.6533 53.4826 22.5145C52.6739 22.2739 52.0928 22.3553 51.5228 22.979C50.1571 24.4723 48.7359 26.8318 47.459 28.5121C45.2921 31.3656 43.1103 34.2099 40.8729 37.0079L40.6879 37.6149C41.8685 38.1664 43.0177 38.8122 44.154 39.4488C44.6388 39.7208 46.6855 41.0717 46.9964 41.0847C47.5775 41.1106 48.4084 39.9244 48.7785 39.5543C51.6302 36.7045 55.6088 32.9534 57.9849 29.813C58.8991 28.6046 59.1489 26.656 58.0867 25.4531V25.4513ZM33.9482 82.2501H45.7898L45.6603 78.2048C45.5104 73.5211 45.3642 68.7985 45.2865 64.1184C45.2643 62.7897 45.3106 61.4574 45.2939 60.1268C46.1137 58.9554 47.5571 58.1782 48.4602 57.0605C51.199 53.6666 52.4148 49.6675 53.3586 45.5038C54.1377 42.0636 54.7909 38.5846 55.5126 35.1315L48.2381 42.5596L47.4757 42.8649L28.9036 35.1296L28.7741 35.5053L36.9109 46.442C37.009 49.3307 36.2817 52.2065 36.3743 55.0804L39.4332 56.1981C39.4832 56.5405 39.3962 56.3887 39.25 56.4461C38.656 56.6811 35.2158 57.9173 35.0937 58.2744L33.9501 82.2501H33.9482Z" fill="#C4D9FF"/>
<path d="M16.9951 82.2496C17.0839 81.6815 17.2042 81.0079 17.2431 80.4417C17.6465 74.5107 17.8759 68.5556 18.2424 62.619C18.3219 61.3403 18.8493 58.7366 18.4848 57.6374C15.6442 53.3885 12.6815 49.2229 9.81127 44.9945C8.49738 43.0588 7.24456 40.7956 5.87886 38.9561C4.90547 37.6459 3.66745 36.7928 3.01236 35.2162C2.57563 34.1669 2.54417 33.9744 3.03456 32.9492C4.47059 29.944 7.08911 26.4039 8.86749 23.4504C10.7939 20.2526 12.663 17.0123 14.5228 13.7739C15.3351 12.5063 16.5935 13.339 17.6631 13.8331C21.3402 15.5375 24.9709 17.3732 28.6868 19.0146C29.6602 19.444 32.3009 20.2397 32.895 20.9152C33.2558 21.326 33.2521 21.6739 33.1707 22.1994C32.6229 25.7617 31.1851 29.8292 26.9066 29.9051C24.0253 29.9551 22.6596 28.0101 20.9867 26.0911C19.6821 24.5959 18.5218 22.9378 17.1209 21.5443L19.3638 28.6486L15.1242 30.2086C15.0946 30.4288 15.2889 30.4492 15.4314 30.525C18.6032 32.2072 22.1637 33.4933 25.354 35.1866L34.2736 47.2188L33.5094 54.5729L28.9626 56.4456C28.9163 56.6714 29.0236 56.6917 29.1791 56.7898C29.5214 57.0045 31.9253 57.9927 31.9604 58.1481L33.0763 82.2478H16.9969L16.9951 82.2496Z" fill="#FBFBFB"/>
<path d="M33.9494 82.2503L35.0931 58.2747C35.217 57.9194 38.6572 56.6813 39.2494 56.4463C39.3956 56.389 39.4844 56.5407 39.4326 56.1983L36.3736 55.0806C36.2811 52.2067 37.0084 49.331 36.9103 46.4423L28.7734 35.5055L28.903 35.1299L47.475 42.8652L48.2375 42.5598L55.512 35.1317C54.7903 38.583 54.137 42.0639 53.3579 45.504C52.416 49.6678 51.1983 53.6668 48.4595 57.0607C47.5583 58.1784 46.1149 58.9557 45.2933 60.127C45.3099 61.4557 45.2636 62.79 45.2859 64.1187C45.3636 68.7969 45.5098 73.5213 45.6597 78.205L45.7892 82.2503H33.9476H33.9494Z" fill="#FBFBFB"/>
<path d="M44.2595 14.3424C44.4705 14.3073 44.6259 14.3073 44.8369 14.3258C45.7325 14.3998 49.5669 16.576 50.0813 17.3144C50.5625 18.0065 50.7975 19.0243 50.4921 19.8293C46.8614 25.1792 43.349 30.6846 39.5313 35.9179C39.1631 36.4231 38.8707 37.0579 38.1286 36.871L31.9034 33.8694C31.7887 33.788 31.7017 33.7731 31.7165 33.5973C31.7387 33.366 32.3105 32.3852 32.4715 32.1021C32.8472 31.4396 33.4116 30.8086 33.7965 30.1868C36.8851 25.207 39.8904 20.1716 42.9882 15.1974C43.275 14.8384 43.795 14.422 44.2558 14.3443L44.2595 14.3424Z" fill="#FBFBFB"/>
<path d="M58.0863 25.451C59.1467 26.6539 58.8987 28.6044 57.9846 29.8109C55.6085 32.9513 51.6298 36.7023 48.7781 39.5522C48.408 39.9223 47.5771 41.1085 46.996 41.0826C46.687 41.0678 44.6384 39.7187 44.1536 39.4467C43.0173 38.8101 41.8681 38.1661 40.6875 37.6128L40.8726 37.0058C43.1099 34.2078 45.2935 31.3635 47.4587 28.51C48.7355 26.8278 50.1567 24.4702 51.5224 22.9768C52.0924 22.3551 52.6735 22.2718 53.4822 22.5124C53.9522 22.653 57.7532 25.0735 58.0863 25.4492V25.451Z" fill="#FBFBFB"/>
<path d="M32.2836 5.75567C32.8628 6.42557 32.7351 6.85489 32.4168 7.61177C31.8543 8.94971 30.3609 10.9983 29.5614 12.3603C28.8286 13.6112 28.1032 14.8789 27.4518 16.1742C24.478 15.5636 22.1815 13.4021 19.3594 12.3788C20.4456 10.4616 21.7003 8.64067 22.8254 6.74756C23.3862 5.80563 24.441 3.19266 25.3755 2.81515C26.31 2.43764 27.3685 3.04832 28.2087 3.40918C29.2857 3.87182 31.5452 4.90627 32.2817 5.75567H32.2836Z" fill="#FBFBFB"/>
<path d="M35.1964 23.2895C35.276 22.1792 35.0872 21.0004 34.5395 20.0196C33.5513 18.2523 30.8661 18.3393 29.332 17.1142C29.8576 16.1112 30.372 15.0897 30.9346 14.1071C31.7359 12.7099 33.5457 9.39189 34.5154 8.33893C35.0576 7.7486 35.659 7.74675 36.3845 7.95031C37.1099 8.15387 40.9627 10.2006 41.3587 10.7039C41.9398 11.4423 41.8491 12.2158 41.4031 12.9838L35.1946 23.2895H35.1964Z" fill="#FBFBFB"/>
</svg>
