<svg width="86" height="85" viewBox="0 0 86 85" fill="none" xmlns="http://www.w3.org/2000/svg">
<path d="M72.5007 44.3059C68.1593 40.5694 62.5093 41.1599 58.4971 44.991C55.9252 47.4477 55.094 51.3282 55.7503 54.7849L50.2032 51.4928C49.9296 51.1183 53.413 47.5094 53.8265 46.9004C57.349 41.7483 57.958 34.0964 55.6474 28.2736C55.4931 27.8847 54.3831 25.4558 54.31 25.393C54.237 25.3303 53.878 25.3169 53.9006 25.4959C54.9829 29.5081 54.4973 33.6581 52.5714 37.3185C50.4234 41.4006 46.547 44.0692 43.0183 46.851C39.4897 44.0692 35.6133 41.4006 33.4652 37.3185C31.5394 33.6581 31.0538 29.5081 32.136 25.4959C32.1587 25.3169 31.7513 25.3704 31.7266 25.393C31.6052 25.4959 30.5435 27.8847 30.3892 28.2736C28.0786 34.0964 28.6876 41.7483 32.2101 46.9004C32.6237 47.5094 36.1071 51.1183 35.8334 51.4928L30.2863 54.7849C30.9427 51.3282 30.1114 47.4477 27.5395 44.991C23.5273 41.1599 17.8774 40.5694 13.536 44.3059C6.29348 50.5422 10.4991 62.3298 20.0069 62.5973C19.6366 63.2495 18.8341 63.8174 18.402 64.3729C17.0441 66.1157 15.4701 68.5291 14.7561 70.6155C13.9928 72.8458 13.6286 77.3189 14.1306 79.8476C14.3322 80.8681 14.3425 82.0615 14.7664 83.3557C14.8693 83.6726 15.2273 84.9997 15.5873 84.9997H32.8521C32.9282 84.9997 33.1237 84.8083 33.0722 84.582C32.8706 83.7055 32.1525 82.4874 31.8747 81.4566C31.7184 80.8784 31.311 79.432 31.311 78.9361V75.9568L35.1524 82.2775L37.07 84.6869H48.9666L50.8843 82.2775L54.7257 75.9568V78.9361C54.7257 79.432 54.3183 80.8784 54.1619 81.4566C53.8841 82.4874 53.1661 83.7055 52.9644 84.582C52.913 84.8083 53.1084 84.9997 53.1846 84.9997H70.4493C70.8094 84.9997 71.1674 83.6726 71.2703 83.3557C71.6941 82.0615 71.7044 80.8681 71.906 79.8476C72.4081 77.3189 72.0439 72.8458 71.2805 70.6155C70.5666 68.5291 68.9926 66.1157 67.6346 64.3729C67.2025 63.8174 66.4001 63.2495 66.0297 62.5973C75.5376 62.3298 79.7432 50.5422 72.5007 44.3059ZM50.7011 68.5394C49.5962 69.9674 46.0552 74.3807 44.6314 75.0103C44.0821 75.2531 43.543 75.3684 43.0183 75.3684C42.4937 75.3684 41.9546 75.2531 41.4052 75.0103C39.9814 74.3807 36.4404 69.9674 35.3355 68.5394C35.0701 68.1958 34.3376 67.2185 34.424 66.8605C34.5598 66.2885 37.1029 63.3236 37.677 62.694C38.8374 61.4204 40.9587 59.3032 42.3064 58.2785C42.4052 58.2045 42.7385 58.0028 43.0183 57.8506C43.2981 58.0028 43.6315 58.2045 43.7302 58.2785C45.0779 59.3032 47.1992 61.4204 48.3597 62.694C48.9337 63.3236 51.4768 66.2885 51.6126 66.8605C51.699 67.2185 50.9666 68.1958 50.7011 68.5394Z" fill="#FBFBFB"/>
<path d="M77.0208 27.7167C77.1525 27.869 77.3747 28.297 77.2719 28.4472C77.2245 28.5171 76.1279 29.3154 75.9201 29.4677C71.2371 32.8935 63.5955 33.6157 58.8117 30.0006C58.464 29.7393 56.9394 28.299 56.9414 27.9677C56.9476 26.9884 60.3939 24.8938 61.3239 24.5317C65.9822 22.7211 73.6506 23.8218 77.0229 27.7167H77.0208Z" fill="#C4D9FF"/>
<path d="M68.2656 36.1024C72.1955 34.2774 77.3352 36.5798 79.8454 39.7977C80.3186 40.4047 81.7857 42.6269 81.3145 43.2894C81.1705 43.4931 80.1725 43.6515 79.8598 43.6844C74.9691 44.1926 69.0804 41.3203 68.2656 36.1024Z" fill="#C4D9FF"/>
<path d="M55.2249 22.8519C53.5604 24.5 50.1305 25.823 47.7952 25.3909C46.8343 25.214 47.5504 23.212 47.7993 22.5186C48.7808 19.7883 51.7271 17.4468 54.474 16.6567C55.2846 16.4242 58.1878 15.6629 58.3833 16.6588C58.6754 18.1546 56.3051 21.782 55.2229 22.8519H55.2249Z" fill="#C4D9FF"/>
<path d="M51.4412 14.0373C50.2664 12.8604 52.3033 8.56222 53.2374 7.46145C53.9946 6.57054 56.3546 5.23519 57.5089 5.08293C58.2146 4.99034 58.3031 5.06442 58.3895 5.75369C58.6714 8.01491 57.2681 11.3193 55.4843 12.7349C54.7724 13.3007 52.1716 14.7718 51.4412 14.0394V14.0373Z" fill="#C4D9FF"/>
<path d="M67.3768 14.5525C68.5949 14.3611 69.3644 14.2109 69.2945 15.6368C69.2348 16.8898 66.9797 19.2786 65.8563 19.8136C64.7329 20.3485 63.0807 20.6201 61.9614 20.0626C61.6939 17.1902 64.809 14.9578 67.3768 14.5525Z" fill="#C4D9FF"/>
<path d="M73.9489 18.2452C75.6999 17.916 78.7594 18.5168 79.7429 20.1196C78.566 21.6545 76.0455 22.5907 74.1547 22.2574C73.4592 22.1339 70.9141 21.208 70.9141 20.3542C70.9141 19.6052 73.2864 18.3687 73.9489 18.2431V18.2452Z" fill="#C4D9FF"/>
<path d="M77.7749 34.16C76.7173 33.0881 77.9107 32.2959 78.96 31.8926C80.8303 31.1704 83.6389 31.5058 85.2046 32.7959C85.7746 33.265 86.3363 33.8432 85.5935 34.4172C83.6718 35.9028 79.5176 35.9274 77.7749 34.1621V34.16Z" fill="#C4D9FF"/>
<path d="M50.2927 4.76863C49.7208 5.43115 47.6694 6.96607 47.476 5.36326C47.2373 3.39009 47.9142 1.41075 49.6734 0.34906C52.4346 -1.31754 51.4264 3.45387 50.2927 4.77069V4.76863Z" fill="#C4D9FF"/>
<path d="M68.4541 7.09962C68.3019 9.36085 66.5324 11.2579 64.2382 11.4101C62.405 11.5336 62.3865 11.0089 63.1375 9.48635C64.0695 7.59548 66.4686 6.88975 68.4562 7.09756L68.4541 7.09962Z" fill="#C4D9FF"/>
<path d="M83.6445 71.6199C78.2003 72.7042 71.0545 68.6282 71.1573 62.6244C76.7621 61.038 83.2062 65.9884 83.6445 71.6199Z" fill="#C4D9FF"/>
<path d="M82.4316 54.993C81.7423 57.8427 78.6602 59.8385 75.757 59.3014C74.1356 59.001 75.9154 56.8098 76.5676 56.2193C78.1746 54.7605 80.37 54.4622 82.4316 54.993Z" fill="#C4D9FF"/>
<path d="M45.4669 7.37137C45.2488 6.9969 43.541 4.57931 43.3415 4.4682C43.2406 4.41059 43.1151 4.41676 42.9752 4.47232C42.8353 4.41676 42.7098 4.41059 42.609 4.4682C42.4094 4.57931 40.7016 6.9969 40.4835 7.37137C37.2738 12.8794 37.1113 21.379 41.6461 26.2163C42.2592 26.8706 42.5719 27.243 42.9752 27.2018C43.3785 27.243 43.6912 26.8706 44.3044 26.2163C48.8392 21.379 48.6766 12.8794 45.4669 7.37137Z" fill="#C4D9FF"/>
<path d="M42.9725 29.0801C39.4233 29.0821 36.5469 31.9586 36.5469 35.5078C36.5469 39.057 39.4233 41.9335 42.9725 41.9355C46.5218 41.9335 49.3982 39.057 49.3982 35.5078C49.3982 31.9586 46.5218 29.0821 42.9725 29.0801Z" fill="#FBFBFB"/>
<path d="M8.92974 27.7167C8.79806 27.869 8.57585 28.297 8.67872 28.4472C8.72605 28.5171 9.82271 29.3154 10.0305 29.4677C14.7135 32.8935 22.3551 33.6157 27.1389 30.0006C27.4866 29.7393 29.0112 28.299 29.0092 27.9677C29.003 26.9884 25.5566 24.8938 24.6266 24.5317C19.9684 22.7211 12.3 23.8218 8.92769 27.7167H8.92974Z" fill="#C4D9FF"/>
<path d="M17.6839 36.1024C13.754 34.2774 8.6143 36.5798 6.10411 39.7977C5.63088 40.4047 4.16386 42.6269 4.63504 43.2894C4.77907 43.4931 5.77697 43.6515 6.08971 43.6844C10.9805 44.1926 16.8691 41.3203 17.6839 36.1024Z" fill="#C4D9FF"/>
<path d="M30.7221 22.8519C32.3867 24.5 35.8166 25.823 38.1518 25.3909C39.1127 25.214 38.3967 23.212 38.1477 22.5186C37.1663 19.7883 34.2199 17.4468 31.4731 16.6567C30.6624 16.4242 27.7593 15.6629 27.5638 16.6588C27.2716 18.1546 29.6419 21.782 30.7242 22.8519H30.7221Z" fill="#C4D9FF"/>
<path d="M34.5079 14.0373C35.6827 12.8604 33.6458 8.56222 32.7117 7.46145C31.9545 6.57054 29.5945 5.23519 28.4402 5.08293C27.7345 4.99034 27.646 5.06442 27.5596 5.75369C27.2777 8.01491 28.681 11.3193 30.4648 12.7349C31.1767 13.3007 33.7775 14.7718 34.5079 14.0394V14.0373Z" fill="#C4D9FF"/>
<path d="M18.5744 14.5525C17.3563 14.3611 16.5868 14.2109 16.6567 15.6368C16.7164 16.8898 18.9715 19.2786 20.0949 19.8136C21.2183 20.3485 22.8705 20.6201 23.9898 20.0626C24.2573 17.1902 21.1422 14.9578 18.5744 14.5525Z" fill="#C4D9FF"/>
<path d="M12.001 18.2452C10.2501 17.916 7.19053 18.5168 6.20703 20.1196C7.38394 21.6545 9.90441 22.5907 11.7953 22.2574C12.4907 22.1339 15.0359 21.208 15.0359 20.3542C15.0359 19.6052 12.6636 18.3687 12.001 18.2431V18.2452Z" fill="#C4D9FF"/>
<path d="M8.17482 34.16C9.23239 33.0881 8.03902 32.2959 6.98968 31.8926C5.11939 31.1704 2.31086 31.5058 0.745079 32.7959C0.175144 33.265 -0.386561 33.8432 0.356207 34.4172C2.27794 35.9028 6.43209 35.9274 8.17482 34.1621V34.16Z" fill="#C4D9FF"/>
<path d="M35.6545 4.76863C36.2265 5.43115 38.2779 6.96607 38.4713 5.36326C38.7099 3.39009 38.033 1.41075 36.2738 0.34906C33.5126 -1.31754 34.5208 3.45387 35.6545 4.77069V4.76863Z" fill="#C4D9FF"/>
<path d="M17.4982 7.09962C17.6504 9.36085 19.4199 11.2579 21.714 11.4101C23.5473 11.5336 23.5658 11.0089 22.8148 9.48635C21.8827 7.59548 19.4837 6.88975 17.4961 7.09756L17.4982 7.09962Z" fill="#C4D9FF"/>
<path d="M2.30859 71.6199C7.75282 72.7042 14.8986 68.6282 14.7957 62.6244C9.19103 61.038 2.74685 65.9884 2.30859 71.6199Z" fill="#C4D9FF"/>
<path d="M3.51953 54.993C4.2088 57.8427 7.29098 59.8385 10.1942 59.3014C11.8155 59.001 10.0357 56.8098 9.38349 56.2193C7.77656 54.7605 5.58118 54.4622 3.51953 54.993Z" fill="#C4D9FF"/>
<path d="M42.9163 62.5625C40.4946 62.5543 38.0791 64.5316 38.8136 68.5561C39.0132 69.6466 39.5008 70.7206 40.3609 71.4284C41.1839 72.1074 42.0686 72.3996 42.9163 72.3913C43.764 72.3996 44.6488 72.1074 45.4718 71.4284C46.3318 70.7206 46.8195 69.6466 47.0191 68.5561C47.7536 64.5316 45.338 62.5543 42.9163 62.5625Z" fill="#FBFBFB"/>
</svg>
