<svg width="80" height="65" viewBox="0 0 80 65" fill="none" xmlns="http://www.w3.org/2000/svg">
<path d="M30.0981 2.55176C26.8457 4.48321 24.9547 6.40033 24.4243 8.30176C23.6438 10.2531 23.8889 12.094 25.1596 13.8252C26.4306 15.5465 27.5419 16.8078 28.4926 17.6084C29.3933 18.379 30.4292 19.4699 31.6 20.8809C31.8997 21.2404 32.0591 21.4409 32.0795 21.4814C32.4398 21.0912 32.6205 20.5508 32.6206 19.8604V0.405273H36.1479L36.1635 15.6875C36.0534 19.1399 35.8532 21.2565 35.5629 22.0371C35.3928 22.4874 35.1674 22.9029 34.8872 23.2832C34.607 23.6534 34.3219 24.0187 34.0317 24.3789C34.3619 25.0493 34.6069 25.6848 34.767 26.2852L34.8422 26.1797C34.8823 26.2698 34.9223 26.3555 34.9624 26.4355C35.0923 26.6855 35.2473 26.8954 35.4272 27.0654C35.6073 27.2255 35.8076 27.3513 36.0278 27.4414C36.2504 27.5285 36.4732 27.5713 36.6958 27.5742C36.9282 27.5715 37.1563 27.5287 37.3793 27.4414C37.6195 27.3513 37.8291 27.2255 38.0092 27.0654C38.1993 26.8953 38.3493 26.6903 38.4594 26.4502C38.5795 26.2 38.6401 25.9149 38.6401 25.5947V24.8887L42.1528 23.4785V25.5947C42.1528 25.9049 42.2031 26.1854 42.3032 26.4355C42.4132 26.6756 42.5633 26.8807 42.7534 27.0508C42.9435 27.2209 43.1587 27.3514 43.3989 27.4414C43.649 27.5314 43.9193 27.5762 44.2094 27.5762C44.7398 26.9057 45.3202 26.22 45.9506 25.5195C46.5911 24.809 47.2665 24.1383 47.977 23.5078C48.6975 22.8773 49.4484 22.3073 50.229 21.7969C51.0196 21.2765 51.8356 20.8713 52.6762 20.5811C53.5268 20.2809 54.3923 20.115 55.2729 20.085C56.1635 20.055 57.0644 20.2059 57.975 20.5361C58.4753 20.7163 58.9161 20.9865 59.2963 21.3467C59.6865 21.7069 60.0118 22.117 60.2719 22.5771C60.5421 23.0375 60.7471 23.5331 60.8872 24.0635C61.0273 24.5939 61.0971 25.1146 61.0971 25.625C61.0971 26.3754 60.9517 27.0855 60.6616 27.7559C60.3814 28.4164 59.9911 28.9977 59.4907 29.498C59.0004 29.9882 58.4254 30.3788 57.7651 30.6689C57.1046 30.9492 56.3985 31.0889 55.6479 31.0889H43.7739C43.0634 31.0889 42.4429 30.964 41.9125 30.7139C41.3821 30.4537 40.8717 30.0978 40.3813 29.6475C39.8909 30.0978 39.3301 30.4537 38.6997 30.7139C38.0824 30.9588 37.4218 31.0818 36.7182 31.0869V31.0889C36.7114 31.0889 36.7045 31.0879 36.6977 31.0879C36.6896 31.0879 36.6814 31.0889 36.6733 31.0889V31.0869C35.8199 31.0804 35.0289 30.8923 34.3012 30.5186C33.8109 31.2188 33.0858 31.7491 32.1254 32.1094C31.1547 32.4696 29.9884 32.6252 28.6274 32.5752H24.3491V29.0625C24.3591 28.322 24.4793 27.6465 24.7094 27.0361C24.9496 26.4157 25.2748 25.8651 25.685 25.3848C26.1053 24.8945 26.5954 24.4686 27.1557 24.1084C27.7262 23.7481 28.3475 23.4585 29.018 23.2383L28.8676 22.8174C28.6174 22.4471 28.4218 22.1919 28.2817 22.0518C26.5605 20.4307 25.2199 19.2195 24.2592 18.4189C23.3086 17.6084 22.4925 16.5379 21.812 15.207C21.1415 13.8762 20.8118 12.5149 20.8217 11.124C20.7317 9.75306 20.8863 8.53171 21.2866 7.46094C21.6968 6.39031 22.0472 5.59462 22.3374 5.07422C22.6276 4.55383 23.2377 3.86258 24.1684 3.00195C25.1091 2.13128 26.4757 1.19046 28.267 0.179688L30.0981 2.55176ZM66.8764 0.600586C67.1366 1.28111 67.5577 2.0263 68.1381 2.83691C68.8887 3.90772 69.5435 4.80387 70.104 5.52441C70.6643 6.23489 71.255 6.94015 71.8754 7.64062C72.5059 8.33108 73.0714 8.97674 73.5717 9.57715C74.0721 10.1676 74.4578 10.9082 74.728 11.7988C75.0082 12.6795 75.0734 13.5458 74.9233 14.3965C74.8232 15.237 74.5921 15.9675 74.2319 16.5879C73.8716 17.1982 73.4263 17.7284 72.8959 18.1787C72.3656 18.619 71.7656 19.055 71.0952 19.4854C70.4347 19.9157 69.504 20.3461 68.3032 20.7764L67.4321 19.125C67.9424 18.9549 68.4278 18.7844 68.8881 18.6143C69.3585 18.4341 69.7991 18.2189 70.2094 17.9688C70.6297 17.7086 71.0098 17.3983 71.35 17.0381C71.6903 16.6678 71.981 16.2076 72.2211 15.6572C72.5714 14.8766 72.7158 14.1407 72.6557 13.4502C72.6057 12.7597 72.4259 12.0992 72.1157 11.4688C71.8054 10.8283 71.4002 10.2125 70.8999 9.62207C70.4095 9.0317 69.8989 8.44658 69.3686 7.86621C68.8382 7.27576 68.3324 6.68518 67.852 6.09473C67.4618 5.62443 67.1366 5.14363 66.8764 4.65332V32.4551H63.4545V0H66.8764V0.600586ZM31.0444 26.1953C30.6241 26.2754 30.2384 26.3853 29.8881 26.5254C29.5479 26.6655 29.2423 26.8453 28.9721 27.0654C28.7019 27.2856 28.4718 27.5614 28.2817 27.8916C28.1016 28.2118 27.9618 28.6023 27.8618 29.0625H29.8735C30.2636 29.0725 30.6085 29.0268 30.9086 28.9268C31.2087 28.8167 31.424 28.647 31.5542 28.417C31.6943 28.1768 31.7297 27.8713 31.6596 27.501C31.6396 27.421 31.6144 27.3361 31.5844 27.2461C31.5444 27.136 31.5043 27.0307 31.4643 26.9307C31.3643 26.7106 31.2244 26.4654 31.0444 26.1953ZM55.6176 23.6279C54.9873 23.578 54.3471 23.6786 53.6967 23.9287C53.0562 24.1689 52.4302 24.4884 51.8198 24.8887C51.2193 25.289 50.6539 25.7352 50.1235 26.2256C49.6033 26.7058 49.1531 27.156 48.7729 27.5762H55.5883C55.9483 27.5761 56.2533 27.5211 56.5034 27.4111C56.7636 27.301 56.9741 27.1557 57.1342 26.9756C57.3042 26.7856 57.4292 26.5757 57.5092 26.3457C57.5893 26.1056 57.6247 25.8651 57.6147 25.625C57.6047 25.3848 57.5544 25.1491 57.4643 24.9189C57.3743 24.689 57.2446 24.4837 57.0747 24.3037C56.9145 24.1236 56.7086 23.9736 56.4584 23.8535C56.2183 23.7335 55.9378 23.6579 55.6176 23.6279Z" fill="#FFE600"/>
<path d="M13.059 41.7772C12.1783 40.9266 11.1976 40.1009 10.1168 39.3003C8.04517 37.7792 6.77419 36.7384 6.30383 36.1779C5.49321 35.2272 4.86773 34.0413 4.42739 32.6202C3.98705 31.1891 3.88697 29.788 4.12716 28.417C4.27727 27.0559 4.64255 25.88 5.223 24.8892C5.80344 23.8985 6.524 23.0428 7.38466 22.3223C8.11522 21.7218 8.92585 21.1264 9.81653 20.5359L9.75648 20.4759C10.3369 20.0255 10.9824 19.6352 11.693 19.305C12.1934 19.0848 12.7138 18.8896 13.2542 18.7195C13.5744 18.5894 13.9047 18.4593 14.2449 18.3292C13.8847 18.039 13.5094 17.7888 13.1191 17.5786C12.6887 17.3485 12.2334 17.1933 11.753 17.1133C11.2827 17.0332 10.7773 17.0382 10.2369 17.1283C9.70644 17.2184 9.14101 17.4135 8.54055 17.7137L8.46549 14.3962C9.126 13.8558 9.78651 13.5205 10.447 13.3904C11.1075 13.2603 11.758 13.2703 12.3985 13.4204C13.049 13.5705 13.6895 13.8257 14.32 14.186C14.9605 14.5463 15.591 14.9466 16.2114 15.3869C16.8419 15.8273 17.4574 16.2726 18.0579 16.723C18.6683 17.1633 19.2688 17.5436 19.8592 17.8638L18.3731 21.7969C17.8727 21.7568 17.3373 21.7468 16.7669 21.7668C16.2064 21.7869 15.646 21.8469 15.0856 21.947C14.5251 22.0471 13.9847 22.1972 13.4643 22.3973C11.2026 23.218 9.53631 24.544 8.46549 26.3754C7.91507 27.6364 7.67989 28.8273 7.75995 29.9481C7.85002 31.059 8.14525 32.1248 8.64563 33.1456C9.14601 34.1664 10.2018 35.2272 11.8131 36.328C13.1441 37.2387 14.1499 38.0293 14.8304 38.6999L13.059 41.7772Z" fill="#FFE600"/>
<path d="M41.3115 47.083C42.5983 47.083 43.7862 47.3966 44.875 48.0234C45.9804 48.6339 46.8714 49.5991 47.5479 50.9189C48.2243 52.2388 48.5625 53.9468 48.5625 56.042C48.5625 58.137 48.2242 59.8443 47.5479 61.1641C46.8714 62.4839 45.9803 63.4571 44.875 64.084C43.7861 64.6944 42.5984 65 41.3115 65C40.0247 65 38.829 64.6943 37.7236 64.084C36.6348 63.4571 35.7516 62.4839 35.0752 61.1641C34.3989 59.8443 34.0606 58.137 34.0605 56.042C34.0605 53.9468 34.3988 52.2388 35.0752 50.9189C35.7516 49.5991 36.6348 48.6339 37.7236 48.0234C38.8289 47.3966 40.0248 47.083 41.3115 47.083ZM6.18652 47.3799C7.17619 47.3799 8.05077 47.5779 8.80957 47.9736C9.58496 48.3531 10.1962 48.9307 10.6416 49.7061C11.087 50.4814 11.3095 51.4548 11.3096 52.626C11.3096 53.8137 11.0701 54.8038 10.5918 55.5957C10.1134 56.3876 9.48635 56.982 8.71094 57.3779C8.60245 57.4345 8.49234 57.4857 8.38184 57.5342L11.2852 64.1836V64.7031H8.1416L5.54102 57.9717H3.09375V64.7031H0L0.0498047 47.3799H6.18652ZM22.1025 50.1514H16.3115V54.9277C16.8393 54.7298 17.4004 54.5735 17.9941 54.458C18.6046 54.326 19.2157 54.2518 19.8262 54.2354C20.4364 54.2024 21.0054 54.2182 21.5332 54.2842V56.9326L21.3105 57.0811C20.9146 56.9656 20.4359 56.9082 19.875 56.9082C19.3142 56.8917 18.7205 56.9323 18.0938 57.0312C17.4668 57.1137 16.8725 57.2621 16.3115 57.4766V61.9316H22.1025V64.7031H13.2676V47.3799H22.1025V50.1514ZM32.8789 50.1514H27.1631V55.4473C27.6909 55.2494 28.2519 55.093 28.8457 54.9775C29.4561 54.8621 30.0664 54.7879 30.6768 54.7549C31.2872 54.7219 31.8568 54.7387 32.3848 54.8047V57.4766L32.1621 57.625C31.7662 57.493 31.2874 57.4278 30.7266 57.4277C30.1656 57.4112 29.5713 57.4518 28.9443 57.5508C28.3176 57.6333 27.7239 57.7906 27.1631 58.0215V64.7031H24.1191V47.3799H32.8789V50.1514ZM56.6953 47.3799C57.685 47.3799 58.5596 47.5778 59.3184 47.9736C60.0938 48.3531 60.7049 48.9307 61.1504 49.7061C61.5958 50.4814 61.8183 51.4548 61.8184 52.626C61.8184 53.8137 61.5789 54.8038 61.1006 55.5957C60.6221 56.3876 59.9951 56.982 59.2197 57.3779C59.1112 57.4345 59.0011 57.4857 58.8906 57.5342L61.7939 64.1836V64.7031H58.6504L56.0498 57.9717H53.6025V64.7031H50.5088L50.5586 47.3799H56.6953ZM71.374 59.3828H71.5967L74.3682 47.3799H79.1445V64.7031H76.1748L76.2734 51.3887H76.002L72.7598 64.7031H70.1611L66.9443 51.3887H66.6475L66.7705 64.7031H63.7764V47.3799H68.5527L71.374 59.3828ZM41.3115 49.9785C40.5361 49.9785 39.8349 50.2099 39.208 50.6719C38.5977 51.1173 38.111 51.7851 37.748 52.6758C37.3851 53.5667 37.2031 54.6891 37.2031 56.042C37.2032 57.3946 37.3851 58.5164 37.748 59.4072C38.111 60.2981 38.5976 60.9746 39.208 61.4365C39.8349 61.882 40.5282 62.1045 41.2871 62.1045C42.0458 62.1044 42.7385 61.8818 43.3652 61.4365C44.0086 60.9746 44.512 60.2981 44.875 59.4072C45.2544 58.5164 45.4443 57.3946 45.4443 56.042C45.4443 54.6727 45.2544 53.5422 44.875 52.6514C44.4955 51.7605 43.9922 51.0919 43.3652 50.6465C42.7384 50.2012 42.0538 49.9785 41.3115 49.9785ZM3.09375 55.3486H5.84082C6.30248 55.3486 6.70644 55.2496 7.05273 55.0518C7.39909 54.8373 7.66325 54.5404 7.84473 54.1611C8.0427 53.7652 8.1416 53.2944 8.1416 52.75C8.14158 52.1892 8.04264 51.7192 7.84473 51.3398C7.66325 50.9439 7.39919 50.6462 7.05273 50.4482C6.70647 50.2505 6.30241 50.1514 5.84082 50.1514H3.09375V55.3486ZM53.6025 55.3486H56.3486C56.8105 55.3486 57.2151 55.2497 57.5615 55.0518C57.9079 54.8373 58.172 54.5404 58.3535 54.1611C58.5515 53.7652 58.6504 53.2944 58.6504 52.75C58.6504 52.1892 58.5514 51.7192 58.3535 51.3398C58.172 50.9439 57.908 50.6462 57.5615 50.4482C57.2151 50.2504 56.8104 50.1514 56.3486 50.1514H53.6025V55.3486Z" fill="#FBFAF8"/>
</svg>
