<svg width="37" height="34" viewBox="0 0 37 34" fill="none" xmlns="http://www.w3.org/2000/svg">
<path fill-rule="evenodd" clip-rule="evenodd" d="M35.7719 15L25.2313 4.3875C19.3697 -1.46232 9.87872 -1.46232 4.01719 4.3875L4.00312 4.40156L1.85156 6.625C1.38794 7.12324 1.40811 7.90083 1.89696 8.37436C2.3858 8.84789 3.16364 8.84331 3.64687 8.36406L5.79219 6.14844C6.65529 5.2855 7.64024 4.55377 8.71562 3.97656L15.9813 11.25L0.98125 26.25C0.512286 26.7189 0.248815 27.3548 0.248815 28.018C0.248815 28.6811 0.512286 29.3171 0.98125 29.7859L4.21406 33.0187C4.68292 33.4877 5.31889 33.7512 5.98203 33.7512C6.64517 33.7512 7.28114 33.4877 7.75 33.0187L22.75 18.0187L24.9906 20.2594L27.75 23.0156C28.2189 23.4846 28.8548 23.7481 29.518 23.7481C30.1811 23.7481 30.8171 23.4846 31.2859 23.0156L35.7687 18.5328C36.7441 17.5577 36.7455 15.9769 35.7719 15ZM5.98125 31.25L2.75 28.0172L13.375 17.3922L16.6063 20.625L5.98125 31.25ZM21.8656 15.3625L18.375 18.8547L15.1422 15.625L18.6344 12.1328C18.8691 11.8984 19.001 11.5802 19.001 11.2484C19.001 10.9167 18.8691 10.5985 18.6344 10.3641L11.2375 2.96875C15.5889 1.74324 20.2629 2.96268 23.4609 6.15781L30.3703 13.1125L25.875 17.6031L23.6344 15.3625C23.3999 15.1278 23.0818 14.9959 22.75 14.9959C22.4182 14.9959 22.1001 15.1278 21.8656 15.3625ZM29.5219 21.2469L27.6469 19.3719L32.125 14.8828L34 16.7578L29.5219 21.2469Z" fill="#FBFBFB"/>
</svg>
