<svg width="34" height="32" viewBox="0 0 34 32" fill="none" xmlns="http://www.w3.org/2000/svg">
<path fill-rule="evenodd" clip-rule="evenodd" d="M33.0812 29.625C30.7016 25.5109 27.0344 22.5609 22.7547 21.1625C27.1059 18.5722 29.1903 13.394 27.847 8.51149C26.5037 3.62902 22.0639 0.245749 17 0.245749C11.9361 0.245749 7.49631 3.62902 6.15303 8.51149C4.80975 13.394 6.89408 18.5722 11.2453 21.1625C6.96563 22.5594 3.29844 25.5094 0.91875 29.625C0.681172 30.0124 0.672545 30.4982 0.896219 30.8938C1.11989 31.2893 1.54063 31.5324 1.99504 31.5285C2.44946 31.5246 2.86596 31.2744 3.08281 30.875C6.02656 25.7875 11.2297 22.75 17 22.75C22.7703 22.75 27.9734 25.7875 30.9172 30.875C31.134 31.2744 31.5505 31.5246 32.005 31.5285C32.4594 31.5324 32.8801 31.2893 33.1038 30.8938C33.3275 30.4982 33.3188 30.0124 33.0812 29.625ZM8.25 11.5C8.25 6.66751 12.1675 2.75 17 2.75C21.8325 2.75 25.75 6.66751 25.75 11.5C25.75 16.3325 21.8325 20.25 17 20.25C12.1697 20.2448 8.25517 16.3303 8.25 11.5Z" fill="#FBFBFB"/>
</svg>
