<svg width="23" height="35" viewBox="0 0 23 35" fill="none" xmlns="http://www.w3.org/2000/svg">
<path fill-rule="evenodd" clip-rule="evenodd" d="M15.25 16.25H12.75V6.25H14C16.7614 6.25 19 8.48858 19 11.25C19 11.9404 19.5596 12.5 20.25 12.5C20.9404 12.5 21.5 11.9404 21.5 11.25C21.4957 7.10965 18.1404 3.75431 14 3.75H12.75V1.25C12.75 0.559644 12.1904 0 11.5 0C10.8096 0 10.25 0.559644 10.25 1.25V3.75H9C4.85786 3.75 1.5 7.10786 1.5 11.25C1.5 15.3921 4.85786 18.75 9 18.75H10.25V28.75H7.75C4.98858 28.75 2.75 26.5114 2.75 23.75C2.75 23.0596 2.19036 22.5 1.5 22.5C0.809644 22.5 0.25 23.0596 0.25 23.75C0.254306 27.8904 3.60965 31.2457 7.75 31.25H10.25V33.75C10.25 34.4404 10.8096 35 11.5 35C12.1904 35 12.75 34.4404 12.75 33.75V31.25H15.25C19.3921 31.25 22.75 27.8921 22.75 23.75C22.75 19.6079 19.3921 16.25 15.25 16.25ZM9 16.25C6.23858 16.25 4 14.0114 4 11.25C4 8.48858 6.23858 6.25 9 6.25H10.25V16.25H9ZM15.25 28.75H12.75V18.75H15.25C18.0114 18.75 20.25 20.9886 20.25 23.75C20.25 26.5114 18.0114 28.75 15.25 28.75Z" fill="#FBFBFB"/>
</svg>
