<svg width="28" height="35" viewBox="0 0 28 35" fill="none" xmlns="http://www.w3.org/2000/svg">
<path fill-rule="evenodd" clip-rule="evenodd" d="M14 7.5C10.5482 7.5 7.75 10.2982 7.75 13.75C7.75 17.2018 10.5482 20 14 20C17.4518 20 20.25 17.2018 20.25 13.75C20.25 10.2982 17.4518 7.5 14 7.5ZM14 17.5C11.9289 17.5 10.25 15.8211 10.25 13.75C10.25 11.6789 11.9289 10 14 10C16.0711 10 17.75 11.6789 17.75 13.75C17.75 15.8211 16.0711 17.5 14 17.5ZM14 0C6.40965 0.00861073 0.258611 6.15965 0.25 13.75C0.25 18.6562 2.51719 23.8562 6.8125 28.7891C8.74253 31.0181 10.9148 33.0252 13.2891 34.7734C13.7196 35.0751 14.2929 35.0751 14.7234 34.7734C17.0934 33.0245 19.2614 31.0174 21.1875 28.7891C25.4766 23.8562 27.75 18.6562 27.75 13.75C27.7414 6.15965 21.5903 0.00861073 14 0ZM14 32.1875C11.4172 30.1562 2.75 22.6953 2.75 13.75C2.75 7.5368 7.7868 2.5 14 2.5C20.2132 2.5 25.25 7.5368 25.25 13.75C25.25 22.6922 16.5828 30.1562 14 32.1875Z" fill="#FBFBFB"/>
</svg>
