<svg width="110" height="75" viewBox="0 0 110 75" fill="none" xmlns="http://www.w3.org/2000/svg">
<g clip-path="url(#clip0_458_3372)">
<path d="M15 0C6.7155 0 0 6.75026 0 15.0777C0 22.6361 5.5395 28.8782 12.7575 29.9683V19.0732H9.0465V15.1093H12.7575V12.4722C12.7575 8.10575 14.874 6.18938 18.4845 6.18938C20.214 6.18938 21.1275 6.31754 21.561 6.37634V9.83515H19.098C17.565 9.83515 17.0295 11.2962 17.0295 12.9427V15.1093H21.522L20.913 19.0732H17.031V30C24.3525 29.0034 30 22.71 30 15.0777C30 6.75026 23.2845 0 15 0Z" fill="#FBFBFB"/>
</g>
<g clip-path="url(#clip1_458_3372)">
<path d="M54.8652 0C41.0787 0 40 1.07948 40 14.8652V15.1348C40 28.9205 41.0787 30 54.8652 30H55.1348C68.9213 30 70 28.9205 70 15.1348V15C70 1.089 68.911 0 55 0H54.8652ZM63.9956 4.5C64.8244 4.49775 65.4977 5.16686 65.5 5.99561C65.5023 6.82436 64.8331 7.49775 64.0044 7.5C63.1756 7.50225 62.5023 6.83314 62.5 6.00439C62.4977 5.17564 63.1669 4.50225 63.9956 4.5ZM54.9824 7.5C59.1239 7.49025 62.4902 10.8409 62.5 14.9824C62.5098 19.1239 59.1591 22.4902 55.0176 22.5C50.8761 22.5098 47.5097 19.1591 47.5 15.0176C47.4903 10.8761 50.8409 7.50975 54.9824 7.5ZM54.9897 10.5C52.5042 10.506 50.494 12.5262 50.5 15.0117C50.506 17.4965 52.5255 19.506 55.0103 19.5C57.4958 19.494 59.506 17.4745 59.5 14.9897C59.494 12.5042 57.4745 10.494 54.9897 10.5Z" fill="#FBFBFB"/>
</g>
<g clip-path="url(#clip2_458_3372)">
<path d="M85 0C82.2386 0 80 2.23857 80 5V25C80 27.7614 82.2386 30 85 30H105C107.761 30 110 27.7614 110 25V5C110 2.23857 107.761 0 105 0H85ZM86.49 6.42857H92.1596L96.1858 12.1498L101.071 6.42857H102.857L96.9922 13.2952L104.224 23.5714H98.5561L93.8839 16.9336L88.2143 23.5714H86.4286L93.0776 15.7882L86.49 6.42857ZM89.2243 7.85714L99.3011 22.1429H101.49L91.4132 7.85714H89.2243Z" fill="#FBFBFB"/>
</g>
<g clip-path="url(#clip3_458_3372)">
<path d="M15 45C23.2711 45 30 51.7289 30 60C30 68.2711 23.2711 75 15 75C6.72886 75 0 68.2711 0 60C0 51.7289 6.72886 45 15 45ZM11.25 66.42C14.8214 66.42 17.7273 63.54 17.7273 60C17.7273 59.2473 17.1164 58.6364 16.3636 58.6364H11.6973C10.9445 58.6364 10.3336 59.2473 10.3336 60C10.3336 60.7527 10.9445 61.3636 11.6973 61.3636H14.7348C14.1825 62.7266 12.8284 63.6927 11.25 63.6927C9.18273 63.6927 7.5 62.0366 7.5 60C7.5 57.9634 9.18273 56.3073 11.25 56.3073C12.0505 56.3073 12.8134 56.552 13.4577 57.0157C14.07 57.4568 14.9216 57.3157 15.3607 56.7048C15.8011 56.0939 15.6614 55.2416 15.0505 54.8011C13.9391 54.002 12.6252 53.5793 11.25 53.5793C7.67864 53.5793 4.77273 56.4593 4.77273 59.9993C4.77273 63.5393 7.67864 66.42 11.25 66.42ZM24.2045 61.3636C24.9573 61.3636 25.5682 60.7527 25.5682 60C25.5682 59.2473 24.9573 58.6364 24.2045 58.6364H23.5575V57.6477C23.5575 56.895 22.9466 56.2841 22.1939 56.2841C21.4411 56.2841 20.8302 56.895 20.8302 57.6477V58.6364H20.1136C19.3609 58.6364 18.75 59.2473 18.75 60C18.75 60.7527 19.3609 61.3636 20.1136 61.3636H20.8302V62.3523C20.8302 63.105 21.4411 63.7159 22.1939 63.7159C22.9466 63.7159 23.5575 63.105 23.5575 62.3523V61.3636H24.2045Z" fill="#FBFBFB"/>
</g>
<g clip-path="url(#clip4_458_3372)">
<path d="M66.4286 45H43.5714C41.6 45 40 46.6 40 48.5714V71.4286C40 73.4 41.6 75 43.5714 75H66.4286C68.4 75 70 73.4 70 71.4286V48.5714C70 46.6 68.4 45 66.4286 45ZM49.2857 56.4286V70H45V56.4286H49.2857ZM45 52.4786C45 51.4786 45.8571 50.7143 47.1429 50.7143C48.4286 50.7143 49.2357 51.4786 49.2857 52.4786C49.2857 53.4786 48.4857 54.2857 47.1429 54.2857C45.8571 54.2857 45 53.4786 45 52.4786ZM65 70H60.7143C60.7143 70 60.7143 63.3857 60.7143 62.8571C60.7143 61.4286 60 60 58.2143 59.9714H58.1571C56.4286 59.9714 55.7143 61.4429 55.7143 62.8571C55.7143 63.5071 55.7143 70 55.7143 70H51.4286V56.4286H55.7143V58.2571C55.7143 58.2571 57.0929 56.4286 59.8643 56.4286C62.7 56.4286 65 58.3786 65 62.3286V70Z" fill="#FBFBFB"/>
</g>
<defs>
<clipPath id="clip0_458_3372">
<rect width="30" height="30" fill="white"/>
</clipPath>
<clipPath id="clip1_458_3372">
<rect width="30" height="30" fill="white" transform="translate(40)"/>
</clipPath>
<clipPath id="clip2_458_3372">
<rect width="30" height="30" fill="white" transform="translate(80)"/>
</clipPath>
<clipPath id="clip3_458_3372">
<rect width="30" height="30" fill="white" transform="translate(0 45)"/>
</clipPath>
<clipPath id="clip4_458_3372">
<rect width="30" height="30" fill="white" transform="translate(40 45)"/>
</clipPath>
</defs>
</svg>
